<?xml version="1.0" encoding="UTF-8" standalone="no"?>
<!-- Created with Inkscape (http://www.inkscape.org/) -->

<svg
   xmlns:dc="http://purl.org/dc/elements/1.1/"
   xmlns:cc="http://creativecommons.org/ns#"
   xmlns:rdf="http://www.w3.org/1999/02/22-rdf-syntax-ns#"
   xmlns:svg="http://www.w3.org/2000/svg"
   xmlns="http://www.w3.org/2000/svg"
   xmlns:sodipodi="http://sodipodi.sourceforge.net/DTD/sodipodi-0.dtd"
   xmlns:inkscape="http://www.inkscape.org/namespaces/inkscape"
   width="744.09448819"
   height="1052.3622047"
   id="svg2"
   version="1.1"
   inkscape:version="0.48.4 r9939"
   sodipodi:docname="doctor.svg"
   inkscape:export-filename="C:\Users\Anders\Dropbox\HiG\Semester 3\GameJam\img\doctor.png"
   inkscape:export-xdpi="15.481905"
   inkscape:export-ydpi="15.481905">
  <defs
     id="defs4" />
  <sodipodi:namedview
     id="base"
     pagecolor="#ffffff"
     bordercolor="#666666"
     borderopacity="1.0"
     inkscape:pageopacity="0.0"
     inkscape:pageshadow="2"
     inkscape:zoom="0.70710678"
     inkscape:cx="808.98325"
     inkscape:cy="641.67128"
     inkscape:document-units="px"
     inkscape:current-layer="layer2"
     showgrid="false"
     inkscape:window-width="1920"
     inkscape:window-height="1017"
     inkscape:window-x="-8"
     inkscape:window-y="-8"
     inkscape:window-maximized="1"
     showguides="true"
     inkscape:guide-bbox="true" />
  <metadata
     id="metadata7">
    <rdf:RDF>
      <cc:Work
         rdf:about="">
        <dc:format>image/svg+xml</dc:format>
        <dc:type
           rdf:resource="http://purl.org/dc/dcmitype/StillImage" />
        <dc:title></dc:title>
      </cc:Work>
    </rdf:RDF>
  </metadata>
  <g
     inkscape:groupmode="layer"
     id="layer5"
     inkscape:label="ALL"
     sodipodi:insensitive="true">
    <g
       id="g6733"
       transform="matrix(1.3071181,0,0,1.2089843,-313.45525,-63.452242)"
       style="stroke:#000000;stroke-width:5.56839848;stroke-miterlimit:4;stroke-opacity:1;stroke-dasharray:none;display:inline">
      <path
         sodipodi:nodetypes="csssc"
         inkscape:connector-curvature="0"
         id="path3037-4-1"
         d="m 668.38824,301.29076 c 0,17.35752 -2.96448,30 5.71428,30 8.67876,0 18.61219,-14.16195 25.71429,-30 7.14285,-15.92895 4.39304,-28.57143 -4.28572,-28.57143 -8.61292,0 -21.33515,13.86617 -27.14195,28.23389"
         style="fill:#ffccaa;fill-opacity:1;fill-rule:evenodd;stroke:#000000;stroke-width:5.56839848;stroke-miterlimit:4;stroke-opacity:1;stroke-dasharray:none;display:inline" />
      <path
         sodipodi:nodetypes="csssc"
         inkscape:connector-curvature="0"
         id="path3037-5"
         d="m 400.18319,299.1479 c 0,17.35752 2.96448,30 -5.71428,30 -8.67876,0 -18.61219,-14.16195 -25.71429,-30 -7.14285,-15.92895 -4.39304,-28.57143 4.28572,-28.57143 8.61292,0 21.33515,13.86617 27.14195,28.23389"
         style="fill:#ffccaa;fill-opacity:1;fill-rule:evenodd;stroke:#000000;stroke-width:5.56839848;stroke-miterlimit:4;stroke-opacity:1;stroke-dasharray:none;display:inline" />
    </g>
    <path
       style="fill:#ffccaa;fill-opacity:1;fill-rule:evenodd;stroke:#000000;stroke-width:7;stroke-miterlimit:4;stroke-opacity:1;stroke-dasharray:none;display:inline"
       d="m 382.97822,447.21536 c -23.276,0 -20.8195,-9.45648 -21.2581,12.06825 l -2.4742,121.41117 c -0.057,2.78212 3.9895,4.47194 5.4327,5.02484 1.4432,0.55291 53.5918,-1.81902 53.5918,-1.81902 0,0 -2.4521,2.19496 -2.4508,2.06745 l 1.2137,-123.0143 c 0.2124,-21.52766 2.2921,-15.73839 -20.9839,-15.73839 z"
       id="rect3058"
       inkscape:connector-curvature="0"
       sodipodi:nodetypes="ssszcssss" />
    <path
       style="fill:#ffffff;fill-opacity:1;fill-rule:evenodd;stroke:#000000;stroke-width:7;stroke-miterlimit:4;stroke-opacity:1;stroke-dasharray:none;display:inline"
       d="m 596.14724,708.56648 c 1.7655,50.80307 -5.25578,98.90914 -11.35309,144.11004 -8.05528,59.71581 -127.14658,44.53191 -213.57488,44.68841 -106.75612,0.1934 -135.82686,10.1065 -166.92063,-40.27228 -15.79213,-25.58674 10.70488,-117.15457 1.61715,-155.68934 6.60263,-113.69226 23.56891,-123.45279 158.79238,-125.04677 101.868,-2.95358 217.91748,-23.06003 231.6505,133.06352"
       id="path3464"
       inkscape:connector-curvature="0"
       sodipodi:nodetypes="csssccc" />
    <path
       style="fill:#ffccaa;fill-opacity:1;fill-rule:evenodd;stroke:#000000;stroke-width:7;stroke-miterlimit:4;stroke-opacity:1;stroke-dasharray:none;marker-start:none;display:inline"
       d="m 574.43613,268.34746 c 0,138.46018 -70.8196,279.87725 -190.4206,279.87725 -119.60099,0 -190.42058,-139.59375 -190.42058,-278.05394 0,-138.46019 74.55333,-188.712014 194.15438,-188.712014 118.6937,0 185.4223,49.548464 186.6971,186.950354"
       id="path3034"
       inkscape:connector-curvature="0"
       sodipodi:nodetypes="csssc" />
    <path
       style="fill:#5599ff;fill-opacity:1;fill-rule:evenodd;stroke:#000000;stroke-width:2.52600002;stroke-miterlimit:4;stroke-opacity:1"
       d="m 497,583.86218 c 0,14.08326 -46.8304,25.5 -112,25.5 -65.1696,0 -108,-11.41674 -108,-25.5 0,-3.22832 20.77606,-4.47577 25.84046,-6.0224 17.02862,-5.20045 31.92881,-3.4776 82.15954,-3.4776 46.60826,0 73.95754,-1.46659 93.12345,2.38587 7.42936,1.49334 18.6757,0.93618 18.86974,4.84026"
       id="path3049"
       inkscape:connector-curvature="0"
       sodipodi:nodetypes="csssssc" />
    <path
       style="fill:#008080;fill-opacity:1;fill-rule:evenodd;stroke:#000000;stroke-width:2.19557881;stroke-miterlimit:4;stroke-opacity:1"
       d="m 430.24927,707.90425 c 1.50902,61.29227 11.33354,109.83129 -35.01318,111.57506 -42.92534,1.61504 -48.96393,-49.2089 -38.8251,-110.30652 7.7417,-46.65226 10.8043,-84.37948 17.98403,-107.21892 5.13992,-16.35051 15.566,-25.12564 16.69455,-23.83166 2.57877,2.9568 11.73222,11.31059 14.69172,21.41548 7.01525,23.95284 19.59754,86.43871 24.44538,107.17509"
       id="path3046"
       inkscape:connector-curvature="0"
       sodipodi:nodetypes="csssssc" />
  </g>
  <g
     inkscape:groupmode="layer"
     id="layer2"
     inkscape:label="Eyes">
    <path
       sodipodi:type="arc"
       style="fill:#ffffff;fill-opacity:1;fill-rule:evenodd;stroke:#000000;stroke-width:2.52600002;stroke-miterlimit:4;stroke-opacity:1;stroke-dasharray:none"
       id="path3055"
       sodipodi:cx="305.5"
       sodipodi:cy="249.36218"
       sodipodi:rx="29.5"
       sodipodi:ry="25"
       d="m 335,249.36218 a 29.5,25 0 1 1 -0.002,-0.2685"
       sodipodi:start="0"
       sodipodi:end="6.2724451"
       sodipodi:open="true"
       transform="translate(-17,0)" />
    <path
       sodipodi:type="arc"
       style="fill:#ffffff;fill-opacity:1;fill-rule:evenodd;stroke:#000000;stroke-width:2.52600002;stroke-miterlimit:4;stroke-opacity:1;stroke-dasharray:none"
       id="path3055-7"
       sodipodi:cx="305.5"
       sodipodi:cy="249.36218"
       sodipodi:rx="29.5"
       sodipodi:ry="25"
       d="m 335,249.36218 a 29.5,25 0 1 1 -0.002,-0.2685"
       sodipodi:start="0"
       sodipodi:end="6.2724451"
       sodipodi:open="true"
       transform="translate(179.5,5.0000034)" />
    <path
       sodipodi:type="arc"
       style="fill:#5599ff;fill-opacity:1;fill-rule:evenodd;stroke:#000000;stroke-width:2.52600002000000010;stroke-miterlimit:4;stroke-opacity:1;stroke-dasharray:none"
       id="path3075"
       sodipodi:cx="74"
       sodipodi:cy="378.86218"
       sodipodi:rx="16"
       sodipodi:ry="15.5"
       d="m 90,378.86218 a 16,15.5 0 1 1 -9.23e-4,-0.16647"
       sodipodi:start="0"
       sodipodi:end="6.2724451"
       sodipodi:open="true"
       transform="translate(214,-128)" />
    <path
       sodipodi:type="arc"
       style="fill:#5599ff;fill-opacity:1;fill-rule:evenodd;stroke:#000000;stroke-width:2.52600002;stroke-miterlimit:4;stroke-opacity:1;stroke-dasharray:none"
       id="path3075-4"
       sodipodi:cx="74"
       sodipodi:cy="378.86218"
       sodipodi:rx="16"
       sodipodi:ry="15.5"
       d="m 90,378.86218 a 16,15.5 0 1 1 -9.23e-4,-0.16647"
       sodipodi:start="0"
       sodipodi:end="6.2724451"
       sodipodi:open="true"
       transform="translate(412,-123.5)" />
    <path
       sodipodi:type="arc"
       style="fill:#000000;fill-opacity:1;fill-rule:evenodd;stroke:#000000;stroke-width:2.52600002;stroke-miterlimit:4;stroke-opacity:1;stroke-dasharray:none"
       id="path3095"
       sodipodi:cx="-244.5"
       sodipodi:cy="267.36218"
       sodipodi:rx="6.5"
       sodipodi:ry="6"
       d="m -238,267.36218 a 6.5,6 0 1 1 -3.7e-4,-0.0644"
       sodipodi:start="0"
       sodipodi:end="6.2724451"
       sodipodi:open="true"
       transform="translate(539,-10)" />
    <path
       sodipodi:type="arc"
       style="fill:#000000;fill-opacity:1;fill-rule:evenodd;stroke:#000000;stroke-width:2.52600002;stroke-miterlimit:4;stroke-opacity:1;stroke-dasharray:none"
       id="path3095-0"
       sodipodi:cx="-244.5"
       sodipodi:cy="267.36218"
       sodipodi:rx="6.5"
       sodipodi:ry="6"
       d="m -238,267.36218 a 6.5,6 0 1 1 -3.7e-4,-0.0644"
       sodipodi:start="0"
       sodipodi:end="6.2724451"
       sodipodi:open="true"
       transform="translate(722.5,-5.9999967)" />
    <path
       style="fill:#800000;fill-opacity:1;fill-rule:evenodd;stroke:#000000;stroke-width:7;stroke-miterlimit:4;stroke-opacity:1;stroke-dasharray:none"
       d="m 290,180.375 c -38.93607,0 -70.5,29.54921 -70.5,66 0,36.45079 31.56393,66 70.5,66 38.93607,0 70.5,-29.54921 70.5,-66 l 0,-0.71875 C 360.085,209.48406 328.6407,180.375 290,180.375 z m -0.5,3 c 37.54451,0 68.09677,28.01047 68.5,62.8125 l 0,0.6875 c 0,35.07008 -30.66849,63.5 -68.5,63.5 -37.83151,0 -68.5,-28.42992 -68.5,-63.5 0,-35.07008 30.66849,-63.5 68.5,-63.5 z"
       id="path3115-4"
       inkscape:connector-curvature="0" />
    <path
       style="fill:#800000;fill-opacity:1;fill-rule:evenodd;stroke:#000000;stroke-width:7;stroke-miterlimit:4;stroke-opacity:1;stroke-dasharray:none"
       d="m 485,197.36219 c -38.93607,0 -70.5,29.54921 -70.5,66 0,36.45079 31.56393,66 70.5,66 38.93607,0 70.5,-29.54921 70.5,-66 l 0,-0.71875 C 555.085,226.47125 523.6407,197.36219 485,197.36219 z m -0.5,3 c 37.54451,0 68.09677,28.01047 68.5,62.8125 l 0,0.6875 c 0,35.07008 -30.66849,63.5 -68.5,63.5 -37.83151,0 -68.5,-28.42992 -68.5,-63.5 0,-35.07008 30.66849,-63.5 68.5,-63.5 z"
       id="path3115-4-8"
       inkscape:connector-curvature="0" />
    <path
       style="fill:none;stroke:#000000;stroke-width:3.70536184;stroke-linecap:butt;stroke-linejoin:miter;stroke-miterlimit:4;stroke-opacity:1;stroke-dasharray:none"
       d="m 355.15337,230.8876 67.06047,13.79549"
       id="path3943"
       inkscape:connector-type="polyline"
       inkscape:connector-curvature="0"
       sodipodi:nodetypes="cc" />
    <path
       style="fill:none;stroke:#000000;stroke-width:3.15759826;stroke-linecap:butt;stroke-linejoin:miter;stroke-miterlimit:4;stroke-opacity:1;stroke-dasharray:none"
       d="m 187.5408,270.08057 30.79769,-37.03364"
       id="path3945"
       inkscape:connector-type="polyline"
       inkscape:connector-curvature="0" />
    <path
       style="fill:none;stroke:#000000;stroke-width:2.28409338;stroke-linecap:butt;stroke-linejoin:miter;stroke-miterlimit:4;stroke-opacity:1;stroke-dasharray:none"
       d="M 577.71947,278.27318 555.06558,251.72441"
       id="path3945-8"
       inkscape:connector-type="polyline"
       inkscape:connector-curvature="0" />
    <path
       style="fill:#ff8080;fill-opacity:1;fill-rule:evenodd;stroke:#000000;stroke-width:3.28722548;stroke-miterlimit:4;stroke-opacity:1"
       d="m 437.13718,444.10815 c 0,4.20853 -23.96039,3.1828 -53.51706,3.1828 -29.55666,0 -53.51706,1.02573 -53.51706,-3.1828 0,-2.12054 5.5086,-5.28497 15.03769,-7.29088 3.1857,-0.6706 6.82076,-1.21172 10.84956,-1.54106 7.83733,-0.64068 17.94449,1.2117 27.62981,1.2117 13.90816,0 26.24653,-1.46286 35.769,-0.22271 10.56049,1.37532 17.57932,5.56499 17.74498,7.76111"
       id="path4233"
       inkscape:connector-curvature="0"
       sodipodi:nodetypes="cssssssc" />
    <path
       style="fill:#ff8080;fill-opacity:1;fill-rule:evenodd;stroke:#000000;stroke-width:3.28722548;stroke-miterlimit:4;stroke-opacity:1"
       d="m 436.40069,451.39584 c 0,-4.20855 -23.96039,-3.1828 -53.51705,-3.1828 -29.55667,0 -53.51707,-1.02575 -53.51707,3.1828 0,4.20853 23.9604,7.62023 53.51707,7.62023 29.33244,0 53.19893,-3.36203 53.51397,-7.5384"
       id="path4233-3"
       inkscape:connector-curvature="0"
       sodipodi:nodetypes="csssc" />
    <rect
       style="fill:#000000;fill-opacity:1;fill-rule:evenodd;stroke:#000000;stroke-width:3.49324036;stroke-miterlimit:4;stroke-opacity:1;stroke-dasharray:none"
       id="rect3983"
       width="307.39111"
       height="48.590019"
       x="233.09184"
       y="118.72786"
       rx="25.488449" />
    <path
       sodipodi:type="arc"
       style="fill:#ececec;fill-opacity:1;fill-rule:evenodd;stroke:#000000;stroke-width:4;stroke-miterlimit:4;stroke-opacity:1;stroke-dasharray:none"
       id="path3985"
       sodipodi:cx="916.4104"
       sodipodi:cy="198.88431"
       sodipodi:rx="49.497475"
       sodipodi:ry="48.790367"
       d="m 965.90788,198.88431 a 49.497475,48.790367 0 1 1 -0.003,-0.52401"
       sodipodi:start="0"
       sodipodi:end="6.2724451"
       sodipodi:open="true"
       transform="matrix(1.482446,0,0,1.3879887,-977.39834,-153.53238)" />
    <path
       style="fill:#f9f9f9;fill-opacity:1;fill-rule:evenodd;stroke:#000000;stroke-width:3;stroke-miterlimit:4;stroke-opacity:1;stroke-dasharray:none"
       d="m 336.89137,162.39798 c 0,-9.59219 33.20499,-0.23519 57.14302,-17.3682 15.89443,-11.37606 44.60079,-41.24753 48.43552,-29.69403 3.38782,10.20702 -6.70913,52.9416 -41.90495,59.94832 -20.10259,4.00198 -56.66899,2.55937 -63.67059,-12.69956"
       id="path3987"
       inkscape:connector-curvature="0"
       sodipodi:nodetypes="csssc" />
  </g>
  <g
     inkscape:groupmode="layer"
     id="layer1"
     inkscape:label="Stethoscope"
     sodipodi:insensitive="true">
    <path
       style="fill:#f2f2f2;fill-opacity:1;fill-rule:evenodd;stroke:#000000;stroke-width:2.03646588;stroke-miterlimit:4;stroke-opacity:1"
       d="m 393.79179,776.05268 c 1.67703,0 5.97212,-0.31403 7.34791,1.3068 3.05987,3.60482 2.41179,12.47701 2.41179,20.65667 l 0,24.92645 c 0,8.76342 0.88575,17.27253 -2.53774,20.5903 -1.2087,1.17136 -5.81112,0.81301 -7.22196,0.81301 -1.56368,0 -5.57736,0.32193 -6.88492,-1.09987 -3.21373,-3.49451 -2.87477,-11.8752 -2.87477,-20.30344 l 0,-24.92645 c 0,-9.20257 -0.0976,-18.24518 3.60401,-21.28125 1.06788,-0.87588 4.9451,-0.68222 6.15568,-0.68222 z"
       id="rect3016"
       inkscape:connector-curvature="0"
       sodipodi:nodetypes="sssssssssss" />
    <path
       style="fill:#000000;fill-opacity:1;fill-rule:evenodd;stroke:#000000;stroke-width:1.86957026;stroke-miterlimit:4;stroke-opacity:1;stroke-dasharray:none"
       d="m 419.02459,568.69464 c 10.07913,29.32692 61.97129,68.27191 62.16277,108.02652 l 0,1.89925 c 0,97.74546 -44.91963,88.24596 -88.75394,88.24596 -43.83431,0 -79.34935,2.74159 -79.34935,-95.00387 0,-37.21904 34.32754,-71.1442 43.12827,-99.64368 -6.18778,7.46608 5.12125,-21.09296 0.0431,-11.77512 -16.89153,30.99408 -57.17325,68.2774 -57.17325,112.44678 0,36.38631 2.54048,87.13005 14.42598,97.90143 20.01545,18.13924 39.43635,18.89493 78.08881,18.89493 44.78168,0 81.91207,-2.04075 96.75852,-33.20325 5.5774,-11.70689 11.64768,-13.03117 10.3968,-39.67154 l -1.46405,-31.1803 c -0.36752,-54.24443 -52.81597,-96.48537 -77.3324,-128.52262 -3.17784,-4.1527 2.52655,15.16843 -0.93125,11.58551 z"
       id="path2995"
       inkscape:connector-curvature="0"
       sodipodi:nodetypes="ccssscsssssscsc" />
    <path
       sodipodi:type="arc"
       style="fill:#b3b3b3;fill-opacity:1;fill-rule:evenodd;stroke:#000000;stroke-width:2.52600002;stroke-miterlimit:4;stroke-opacity:1;stroke-dasharray:none"
       id="path3019"
       sodipodi:cx="-261"
       sodipodi:cy="584.86218"
       sodipodi:rx="20"
       sodipodi:ry="19.5"
       d="m -241,584.86218 a 20,19.5 0 1 1 -0.001,-0.20943"
       sodipodi:start="0"
       sodipodi:end="6.2724451"
       sodipodi:open="true"
       transform="translate(654.83215,256.59801)" />
  </g>
</svg>
