<?xml version="1.0" encoding="UTF-8" standalone="no"?>
<!-- Created with Inkscape (http://www.inkscape.org/) -->

<svg
   xmlns:dc="http://purl.org/dc/elements/1.1/"
   xmlns:cc="http://creativecommons.org/ns#"
   xmlns:rdf="http://www.w3.org/1999/02/22-rdf-syntax-ns#"
   xmlns:svg="http://www.w3.org/2000/svg"
   xmlns="http://www.w3.org/2000/svg"
   xmlns:sodipodi="http://sodipodi.sourceforge.net/DTD/sodipodi-0.dtd"
   xmlns:inkscape="http://www.inkscape.org/namespaces/inkscape"
   width="744.09448819"
   height="1052.3622047"
   id="svg2"
   version="1.1"
   inkscape:version="0.48.4 r9939"
   sodipodi:docname="father.svg"
   inkscape:export-filename="/home/pimms/code/js/newsgame/img/siv_jensen.png"
   inkscape:export-xdpi="15.481905"
   inkscape:export-ydpi="15.481905">
  <defs
     id="defs4" />
  <sodipodi:namedview
     id="base"
     pagecolor="#ffffff"
     bordercolor="#666666"
     borderopacity="1.0"
     inkscape:pageopacity="0.0"
     inkscape:pageshadow="2"
     inkscape:zoom="0.40258855"
     inkscape:cx="678.52939"
     inkscape:cy="536.03611"
     inkscape:document-units="px"
     inkscape:current-layer="layer5"
     showgrid="false"
     inkscape:window-width="1280"
     inkscape:window-height="748"
     inkscape:window-x="0"
     inkscape:window-y="25"
     inkscape:window-maximized="1"
     showguides="true"
     inkscape:guide-bbox="true" />
  <metadata
     id="metadata7">
    <rdf:RDF>
      <cc:Work
         rdf:about="">
        <dc:format>image/svg+xml</dc:format>
        <dc:type
           rdf:resource="http://purl.org/dc/dcmitype/StillImage" />
        <dc:title></dc:title>
      </cc:Work>
    </rdf:RDF>
  </metadata>
  <g
     inkscape:groupmode="layer"
     id="layer2"
     inkscape:label="Body"
     style="display:none" />
  <g
     inkscape:groupmode="layer"
     id="layer5"
     inkscape:label="ALL">
    <g
       id="g6733"
       transform="matrix(1.3071181,0,0,1.2089843,-304.58926,-76.869167)"
       style="stroke:#000000;stroke-width:5.56839848;stroke-miterlimit:4;stroke-opacity:1;stroke-dasharray:none;display:inline">
      <path
         sodipodi:nodetypes="csssc"
         inkscape:connector-curvature="0"
         id="path3037-4-1"
         d="m 668.38824,301.29076 c 0,17.35752 -2.96448,30 5.71428,30 8.67876,0 18.61219,-14.16195 25.71429,-30 7.14285,-15.92895 4.39304,-28.57143 -4.28572,-28.57143 -8.61292,0 -21.33515,13.86617 -27.14195,28.23389"
         style="fill:#ffccaa;fill-opacity:1;fill-rule:evenodd;stroke:#000000;stroke-width:5.56839848;stroke-miterlimit:4;stroke-opacity:1;stroke-dasharray:none;display:inline" />
      <path
         sodipodi:nodetypes="csssc"
         inkscape:connector-curvature="0"
         id="path3037-5"
         d="m 400.18319,299.1479 c 0,17.35752 2.96448,30 -5.71428,30 -8.67876,0 -18.61219,-14.16195 -25.71429,-30 -7.14285,-15.92895 -4.39304,-28.57143 4.28572,-28.57143 8.61292,0 21.33515,13.86617 27.14195,28.23389"
         style="fill:#ffccaa;fill-opacity:1;fill-rule:evenodd;stroke:#000000;stroke-width:5.56839848;stroke-miterlimit:4;stroke-opacity:1;stroke-dasharray:none;display:inline" />
    </g>
    <path
       style="fill:#ffccaa;fill-opacity:1;fill-rule:evenodd;stroke:#000000;stroke-width:7;stroke-miterlimit:4;stroke-opacity:1;stroke-dasharray:none;display:inline"
       d="m 390.43,452.18321 c -23.276,0 -20.8195,-9.45648 -21.2581,12.06825 l -2.4742,121.41117 c -0.057,2.78212 3.9895,4.47194 5.4327,5.02484 1.4432,0.55291 53.5918,-1.81902 53.5918,-1.81902 0,0 -2.4521,2.19496 -2.4508,2.06745 l 1.2137,-123.0143 c 0.2124,-21.52766 2.2921,-15.73839 -20.9839,-15.73839 z"
       id="rect3058"
       inkscape:connector-curvature="0"
       sodipodi:nodetypes="ssszcssss" />
    <path
       style="fill:#38b0ff;fill-opacity:1;fill-rule:evenodd;stroke:#000000;stroke-width:7;stroke-miterlimit:4;stroke-opacity:1;stroke-dasharray:none;display:inline"
       d="m 574.42458,712.12012 c 1.7655,50.80307 -5.25578,98.90914 -11.35309,144.11004 -8.05528,59.71581 -127.14658,44.53191 -213.57488,44.68841 -106.75612,0.1934 -135.82686,10.1065 -166.92063,-40.27228 -15.79213,-25.58674 10.70488,-117.15457 1.61715,-155.68934 6.60263,-113.69226 23.56891,-123.45279 158.79238,-125.04677 101.868,-2.95358 217.91748,-23.06003 231.6505,133.06352"
       id="path3464"
       inkscape:connector-curvature="0"
       sodipodi:nodetypes="csssccc" />
    <path
       style="fill:#ffccaa;fill-opacity:1;fill-rule:evenodd;stroke:#000000;stroke-width:7;stroke-miterlimit:4;stroke-opacity:1;stroke-dasharray:none;marker-start:none;display:inline"
       d="m 583.30212,254.93053 c 0,138.46018 -70.8196,279.87725 -190.4206,279.87725 -119.60099,0 -190.42058,-139.59375 -190.42058,-278.05394 0,-138.46019 74.55333,-188.712009 194.15438,-188.712009 118.6937,0 185.4223,49.548459 186.6971,186.950349"
       id="path3034"
       inkscape:connector-curvature="0"
       sodipodi:nodetypes="csssc" />
    <path
       style="fill:#7b2600;fill-opacity:1;stroke:none;display:inline"
       d="m 402.98227,433.17025 46.98371,-8.782 16.02716,0 7.4647,4.391 0.65865,11.4166 -1.09775,20.63771 -3.5128,17.78355 -5.7083,7.68426 -36.46548,6.39359 -6.30081,-18.79869 -15.12847,0.40464 -2.67253,20.64282 -13.86019,-0.95811 -26.78511,0 -18.8813,-2.85415 -6.36696,-19.97906 0.8782,-19.3204 1.53685,-19.10086 10.75796,-4.391 43.47091,4.8301 8.12336,-2.41505 1.3173,-20.19861 -23.93096,-4.17145 -28.10241,-0.65865 -17.78356,2.1955 -10.5384,8.3429 -6.5865,12.73391 -0.8782,21.29635 2.41505,22.61366 4.17145,17.12491 8.56245,9.2211 23.49186,11.85571 40.17766,1.97595 37.10397,-4.8301 32.05431,-5.70831 18.0031,-9.00155 6.14741,-15.80761 5.04965,-21.5159 -0.8782,-24.80916 -5.7083,-19.97906 -12.07526,-10.0993 -11.63615,0.8782 -20.19861,1.7564 -18.88131,3.0737 -17.1249,2.85415 -7.68426,0.4391 0.21955,23.71141 z"
       id="path11586"
       inkscape:connector-curvature="0"
       sodipodi:nodetypes="cccccccccccccccccccccccccccccccccccccccccccccccc" />
    <path
       style="fill:none;stroke:#000000;stroke-width:7;stroke-linecap:butt;stroke-linejoin:round;stroke-miterlimit:4;stroke-opacity:1;stroke-dasharray:none;display:inline"
       d="m 404.12154,410.92556 c -7.3952,0.0284 -14.87996,-3.29285 -21.05741,-3.92606 -21.6163,-2.21574 -54.89823,-6.69405 -62.81386,12.10646 -6.25327,14.85222 -8.19017,47.90296 1.49919,69.3551 10.93794,24.21647 56.17157,24.87088 77.03211,23.98212 21.38295,-0.91103 71.3979,-7.76932 82.91317,-20.34984 11.51527,-12.58052 16.67365,-63.46901 3.53864,-80.86533 -13.13501,-17.39632 -39.68588,-7.60882 -61.37172,-4.60141 -6.89223,0.95582 -12.34492,4.27058 -19.74012,4.29896 z"
       id="path11580"
       inkscape:connector-curvature="0"
       sodipodi:nodetypes="zsssszzsz" />
    <path
       style="fill:none;stroke:#000000;stroke-width:7;stroke-linecap:butt;stroke-linejoin:miter;stroke-miterlimit:4;stroke-opacity:1;stroke-dasharray:none;display:inline"
       d="m 341.06914,430.3161 c -9.2557,6.01037 -4.09044,52.76714 2.41506,59.49807 3.67553,3.80289 36.45864,7.57844 54.63526,6.70728 9.14358,-0.43823 5.66096,-22.82786 7.18971,-23.00759 1.47705,-0.17366 7.29645,0.8317 12.98183,-0.48018 4.29575,-0.99122 6.53504,16.80646 7.16787,17.78559 4.71558,7.29605 35.91451,-3.3556 40.53427,-6.7134 4.61976,-3.3578 13.06865,-47.77265 5.7083,-57.08303 -7.36035,-9.31038 -43.90966,4.02069 -66.30412,5.04966 -22.39446,1.02897 -55.07248,-7.76677 -64.32818,-1.7564 z"
       id="path11582"
       inkscape:connector-curvature="0"
       sodipodi:nodetypes="zssssszzzz" />
    <path
       sodipodi:type="arc"
       style="fill:#ffccaa;fill-opacity:1;stroke:#000000;stroke-width:7;stroke-miterlimit:4;stroke-opacity:1;stroke-dasharray:none;display:inline"
       id="path11588"
       sodipodi:cx="672.70142"
       sodipodi:cy="597.89349"
       sodipodi:rx="131.73004"
       sodipodi:ry="75.964325"
       d="m 804.43146,597.89349 a 131.73004,75.964325 0 1 1 -0.008,-0.81585"
       sodipodi:start="0"
       sodipodi:end="6.2724451"
       sodipodi:open="true"
       transform="matrix(0.53845426,-0.84265474,0.84265474,0.53845426,-301.51754,897.78555)" />
    <path
       style="fill:#ffffff;fill-opacity:1;stroke:#000000;stroke-width:7;stroke-linecap:butt;stroke-linejoin:miter;stroke-miterlimit:4;stroke-opacity:1;stroke-dasharray:none;display:inline"
       d="m 471.86909,650.67328 c 16.11964,-9.57007 150.72404,47.93251 152.80684,71.57332 2.0829,23.64081 -52.154,68.87322 -89.13731,70.69513 -30.10225,1.48292 -64.10937,-17.72836 -79.03803,-43.91002 -15.95593,-27.98327 6.8363,-93.29295 15.3685,-98.35843 z"
       id="path11590"
       inkscape:connector-curvature="0"
       sodipodi:nodetypes="szsss" />
    <path
       style="fill:#c7cbb2;fill-opacity:1;stroke:#000000;stroke-width:0;stroke-linecap:butt;stroke-linejoin:miter;stroke-miterlimit:4;stroke-opacity:1;stroke-dasharray:none;display:inline"
       d="m 599.44553,753.62894 c 0,0 -29.864,23.16877 -47.1412,28.84972 -4.97835,1.63694 -17.53435,4.49795 -29.08379,3.23556 -11.38939,-1.2449 -21.80848,-6.60226 -21.80848,-6.60226 0,0 39.50069,-1.14672 49.13587,-4.9762 6.09908,-2.42407 14.4839,-4.97256 22.6252,-8.62307 13.3893,-6.00366 26.2724,-11.88375 26.2724,-11.88375 z"
       id="path11592"
       inkscape:connector-curvature="0"
       sodipodi:nodetypes="csscssc" />
    <path
       sodipodi:type="arc"
       style="fill:#ffffff;fill-opacity:1;stroke:#000000;stroke-width:3.19258404;stroke-linecap:round;stroke-linejoin:round;stroke-miterlimit:4;stroke-opacity:1;stroke-dasharray:none;display:inline"
       id="path11596"
       sodipodi:cx="655.13538"
       sodipodi:cy="559.61346"
       sodipodi:rx="13.661591"
       sodipodi:ry="13.3511"
       d="m 668.79697,559.61346 a 13.661591,13.3511 0 1 1 -7.9e-4,-0.14339"
       sodipodi:start="0"
       sodipodi:end="6.2724451"
       sodipodi:open="true"
       transform="matrix(1.25,0,0,1.255814,-236.05724,-131.31089)" />
    <path
       sodipodi:type="arc"
       style="fill:#ffffff;fill-opacity:1;stroke:#000000;stroke-width:3.26649666;stroke-linecap:round;stroke-linejoin:round;stroke-miterlimit:4;stroke-opacity:1;stroke-dasharray:none;display:inline"
       id="path11598"
       sodipodi:cx="703.72717"
       sodipodi:cy="580.88208"
       sodipodi:rx="15.058799"
       sodipodi:ry="15.369289"
       d="m 718.78597,580.88208 a 15.058799,15.369289 0 1 1 -8.7e-4,-0.16507"
       sodipodi:start="0"
       sodipodi:end="6.2724451"
       sodipodi:open="true"
       transform="matrix(1.2371134,0,0,1.2121212,-240.22325,-108.73219)" />
    <path
       sodipodi:type="arc"
       style="fill:#000000;fill-opacity:1;stroke:none;display:inline"
       id="path11600"
       sodipodi:cx="659.48224"
       sodipodi:cy="563.02887"
       sodipodi:rx="4.3468699"
       sodipodi:ry="3.7258885"
       d="m 663.82911,563.02887 a 4.3468699,3.7258885 0 1 1 -2.5e-4,-0.04"
       sodipodi:start="0"
       sodipodi:end="6.2724451"
       sodipodi:open="true"
       transform="translate(-76.309775,8.1201523)" />
    <path
       sodipodi:type="arc"
       style="fill:#000000;fill-opacity:1;stroke:none;display:inline"
       id="path11600-1"
       sodipodi:cx="659.48224"
       sodipodi:cy="563.02887"
       sodipodi:rx="4.3468699"
       sodipodi:ry="3.7258885"
       d="m 663.82911,563.02887 a 4.3468699,3.7258885 0 1 1 -2.5e-4,-0.04"
       sodipodi:start="0"
       sodipodi:end="6.2724451"
       sodipodi:open="true"
       transform="translate(-28.494205,32.648892)" />
    <path
       style="fill:#f9f9f9;fill-opacity:1;fill-rule:evenodd;stroke:#000000;stroke-width:4;stroke-miterlimit:4;stroke-opacity:1;stroke-dasharray:none;display:inline"
       d="m 539.77459,284.93549 c -0.2594,12.42904 -4.9574,19.00893 -27.6851,17.92667 -22.7277,-1.08226 -28.7798,-15.56002 -28.6292,-22.7749 0.1506,-7.2149 7.5476,-17.60441 29.4658,-16.5607 21.7519,1.03579 26.8113,9.25489 26.8661,21.6038"
       id="path3070-8-1"
       inkscape:connector-curvature="0"
       sodipodi:nodetypes="csssc" />
    <path
       sodipodi:type="arc"
       style="fill:#00ffff;fill-opacity:1;fill-rule:evenodd;stroke:none;display:inline"
       id="path3092-2-7"
       sodipodi:cx="297.14285"
       sodipodi:cy="649.50507"
       sodipodi:rx="11.428572"
       sodipodi:ry="11.428572"
       d="m 308.57142,649.50507 a 11.428572,11.428572 0 1 1 -6.5e-4,-0.12275"
       sodipodi:start="0"
       sodipodi:end="6.2724451"
       sodipodi:open="true"
       transform="matrix(1.2155723,0.47275382,-0.46934779,1.1174977,456.77559,-583.90727)" />
    <path
       sodipodi:type="arc"
       style="fill:#000000;fill-opacity:1;fill-rule:evenodd;stroke:#000000;stroke-width:3.18194199;stroke-miterlimit:4;stroke-opacity:1;stroke-dasharray:none;display:inline"
       id="path3094-3-6"
       sodipodi:cx="244.28572"
       sodipodi:cy="750.93359"
       sodipodi:rx="4.2857141"
       sodipodi:ry="4.2857141"
       d="m 248.57143,750.93359 a 4.2857141,4.2857141 0 1 1 -2.4e-4,-0.046"
       sodipodi:start="0"
       sodipodi:end="6.2724451"
       sodipodi:open="true"
       transform="matrix(1.2155723,0.47275382,-0.46934779,1.1174977,568.94169,-671.58281)" />
    <path
       style="fill:#f9f9f9;fill-opacity:1;fill-rule:evenodd;stroke:#000000;stroke-width:3.99494791;stroke-miterlimit:4;stroke-opacity:1;stroke-dasharray:none;display:inline"
       d="m 229.8625,291.69465 c 0.021,12.43208 4.5801,19.10577 27.2664,18.48314 22.6862,-0.62262 28.9988,-14.97549 28.9867,-22.19214 -0.012,-7.21666 -7.19,-17.75386 -29.0683,-17.15341 -21.7122,0.59591 -26.9151,8.71127 -27.2061,21.05689"
       id="path3070-8-1-2"
       inkscape:connector-curvature="0"
       sodipodi:nodetypes="csssc" />
    <path
       sodipodi:type="arc"
       style="fill:#00ffff;fill-opacity:1;fill-rule:evenodd;stroke:none;display:inline"
       id="path3092-2-7-7"
       sodipodi:cx="297.14285"
       sodipodi:cy="649.50507"
       sodipodi:rx="11.428572"
       sodipodi:ry="11.428572"
       d="m 308.57142,649.50507 a 11.428572,11.428572 0 1 1 -6.5e-4,-0.12275"
       sodipodi:start="0"
       sodipodi:end="6.2724451"
       sodipodi:open="true"
       transform="matrix(-1.2212952,0.44809759,0.44667863,1.1267876,329.2617,-575.31648)" />
    <path
       sodipodi:type="arc"
       style="fill:#000000;fill-opacity:1;fill-rule:evenodd;stroke:#000000;stroke-width:3.18194199;stroke-miterlimit:4;stroke-opacity:1;stroke-dasharray:none;display:inline"
       id="path3094-3-6-0"
       sodipodi:cx="244.28572"
       sodipodi:cy="750.93359"
       sodipodi:rx="4.2857141"
       sodipodi:ry="4.2857141"
       d="m 248.57143,750.93359 a 4.2857141,4.2857141 0 1 1 -2.4e-4,-0.046"
       sodipodi:start="0"
       sodipodi:end="6.2724451"
       sodipodi:open="true"
       transform="matrix(-1.2212952,0.44809759,0.44667863,1.1267876,219.0801,-665.2439)" />
    <path
       style="fill:#965a00;fill-opacity:1;stroke:#000000;stroke-width:7;stroke-linecap:butt;stroke-linejoin:miter;stroke-miterlimit:4;stroke-opacity:1;stroke-dasharray:none;display:inline"
       d="m 507.43587,44.156605 c 29.6515,9.49153 49.0104,23.80438 72.3438,57.087445 0,0 10.4309,90.65956 -1.4074,92.80018 -20.2975,3.67021 -66.5874,-70.19322 -84.919,-72.7112 -20.6274,-2.83332 -57.4053,-2.87381 -87.2373,12.86589 -29.8321,15.73971 -222.02463,108.85102 -236.59393,100.59898 -14.5694,-8.25205 53.46043,-176.132775 99.97793,-196.230124 86.4812,-37.3631217 189.0732,-11.30486 237.8359,5.588829 z"
       id="path9413"
       inkscape:connector-curvature="0"
       sodipodi:nodetypes="ccsszzsc" />
  </g>
  <g
     inkscape:groupmode="layer"
     id="layer8"
     inkscape:label="Ears"
     style="display:none" />
  <g
     inkscape:label="Head"
     inkscape:groupmode="layer"
     id="layer1"
     style="display:none" />
  <g
     inkscape:groupmode="layer"
     id="layer10"
     inkscape:label="Siv"
     style="display:none" />
  <g
     inkscape:groupmode="layer"
     id="layer3"
     inkscape:label="Arms"
     style="display:none" />
  <g
     inkscape:groupmode="layer"
     id="layer9"
     inkscape:label="RLeg"
     style="display:none" />
  <g
     inkscape:groupmode="layer"
     id="layer4"
     inkscape:label="LLeg"
     style="display:none" />
</svg>
