<?xml version="1.0" encoding="UTF-8" standalone="no"?>
<!-- Created with Inkscape (http://www.inkscape.org/) -->

<svg
   xmlns:dc="http://purl.org/dc/elements/1.1/"
   xmlns:cc="http://creativecommons.org/ns#"
   xmlns:rdf="http://www.w3.org/1999/02/22-rdf-syntax-ns#"
   xmlns:svg="http://www.w3.org/2000/svg"
   xmlns="http://www.w3.org/2000/svg"
   xmlns:sodipodi="http://sodipodi.sourceforge.net/DTD/sodipodi-0.dtd"
   xmlns:inkscape="http://www.inkscape.org/namespaces/inkscape"
   width="744.09448819"
   height="1052.3622047"
   id="svg2"
   version="1.1"
   inkscape:version="0.48.4 r9939"
   sodipodi:docname="viking.svg"
   inkscape:export-filename="C:\Users\Anders\Dropbox\HiG\Semester 3\GameJam\img\viking.png"
   inkscape:export-xdpi="15.481905"
   inkscape:export-ydpi="15.481905">
  <defs
     id="defs4" />
  <sodipodi:namedview
     id="base"
     pagecolor="#ffffff"
     bordercolor="#666666"
     borderopacity="1.0"
     inkscape:pageopacity="0.0"
     inkscape:pageshadow="2"
     inkscape:zoom="0.5"
     inkscape:cx="1107.3061"
     inkscape:cy="540.23107"
     inkscape:document-units="px"
     inkscape:current-layer="layer5"
     showgrid="false"
     inkscape:window-width="1920"
     inkscape:window-height="1017"
     inkscape:window-x="-8"
     inkscape:window-y="-8"
     inkscape:window-maximized="1"
     showguides="true"
     inkscape:guide-bbox="true" />
  <metadata
     id="metadata7">
    <rdf:RDF>
      <cc:Work
         rdf:about="">
        <dc:format>image/svg+xml</dc:format>
        <dc:type
           rdf:resource="http://purl.org/dc/dcmitype/StillImage" />
        <dc:title></dc:title>
      </cc:Work>
    </rdf:RDF>
  </metadata>
  <g
     inkscape:groupmode="layer"
     id="layer5"
     inkscape:label="ALL"
     style="display:inline">
    <g
       id="g6733"
       transform="matrix(1.3071181,0,0,1.2089843,-313.45525,-63.452242)"
       style="stroke:#000000;stroke-width:5.56839848;stroke-miterlimit:4;stroke-opacity:1;stroke-dasharray:none;display:inline">
      <path
         sodipodi:nodetypes="csssc"
         inkscape:connector-curvature="0"
         id="path3037-4-1"
         d="m 668.38824,301.29076 c 0,17.35752 -2.96448,30 5.71428,30 8.67876,0 18.61219,-14.16195 25.71429,-30 7.14285,-15.92895 4.39304,-28.57143 -4.28572,-28.57143 -8.61292,0 -21.33515,13.86617 -27.14195,28.23389"
         style="fill:#ffccaa;fill-opacity:1;fill-rule:evenodd;stroke:#000000;stroke-width:5.56839848;stroke-miterlimit:4;stroke-opacity:1;stroke-dasharray:none;display:inline" />
      <path
         sodipodi:nodetypes="csssc"
         inkscape:connector-curvature="0"
         id="path3037-5"
         d="m 400.18319,299.1479 c 0,17.35752 2.96448,30 -5.71428,30 -8.67876,0 -18.61219,-14.16195 -25.71429,-30 -7.14285,-15.92895 -4.39304,-28.57143 4.28572,-28.57143 8.61292,0 21.33515,13.86617 27.14195,28.23389"
         style="fill:#ffccaa;fill-opacity:1;fill-rule:evenodd;stroke:#000000;stroke-width:5.56839848;stroke-miterlimit:4;stroke-opacity:1;stroke-dasharray:none;display:inline" />
    </g>
    <path
       style="fill:#ffccaa;fill-opacity:1;fill-rule:evenodd;stroke:#000000;stroke-width:7;stroke-miterlimit:4;stroke-opacity:1;stroke-dasharray:none;display:inline"
       d="m 382.97822,447.21536 c -23.276,0 -20.8195,-9.45648 -21.2581,12.06825 l -2.4742,121.41117 c -0.057,2.78212 3.9895,4.47194 5.4327,5.02484 1.4432,0.55291 53.5918,-1.81902 53.5918,-1.81902 0,0 -2.4521,2.19496 -2.4508,2.06745 l 1.2137,-123.0143 c 0.2124,-21.52766 2.2921,-15.73839 -20.9839,-15.73839 z"
       id="rect3058"
       inkscape:connector-curvature="0"
       sodipodi:nodetypes="ssszcssss" />
    <path
       style="fill:#a05a2c;fill-opacity:1;fill-rule:evenodd;stroke:#000000;stroke-width:7;stroke-miterlimit:4;stroke-opacity:1;stroke-dasharray:none;display:inline"
       d="m 596.14724,708.56648 c 1.7655,50.80307 -5.25578,98.90914 -11.35309,144.11004 -8.05528,59.71581 -127.14658,44.53191 -213.57488,44.68841 -106.75612,0.1934 -135.82686,10.1065 -166.92063,-40.27228 -15.79213,-25.58674 10.70488,-117.15457 1.61715,-155.68934 6.60263,-113.69226 23.56891,-123.45279 158.79238,-125.04677 101.868,-2.95358 217.91748,-23.06003 231.6505,133.06352"
       id="path3464"
       inkscape:connector-curvature="0"
       sodipodi:nodetypes="csssccc" />
    <path
       style="fill:#ffccaa;fill-opacity:1;fill-rule:evenodd;stroke:#000000;stroke-width:7;stroke-miterlimit:4;stroke-opacity:1;stroke-dasharray:none;marker-start:none;display:inline"
       d="m 574.43613,268.34746 c 0,138.46018 -70.8196,279.87725 -190.4206,279.87725 -119.60099,0 -190.42058,-139.59375 -190.42058,-278.05394 0,-138.46019 74.55333,-188.712014 194.15438,-188.712014 118.6937,0 185.4223,49.548464 186.6971,186.950354"
       id="path3034"
       inkscape:connector-curvature="0"
       sodipodi:nodetypes="csssc" />
    <path
       style="fill:#1a1a1a;fill-opacity:1;fill-rule:evenodd;stroke:#070000;stroke-width:7.7602725;stroke-miterlimit:4;stroke-opacity:1"
       d="m 321.68843,816.94122 145.27626,0 c 53.1471,0 102.1092,-2.86628 118.6502,2.22568 4.3972,1.35364 0.2859,21.31033 0.2859,22.82921 0,7.23241 -51.6605,1.0549 -118.9361,1.0549 l -145.27626,0 c -67.27561,0 -121.43611,2.17751 -121.43611,-5.0549 0,-1.25013 -1.38182,-17.45813 1.64256,-18.60122 14.47267,-5.47007 64.14659,-2.45367 119.79355,-2.45367 z"
       id="rect3988"
       inkscape:connector-curvature="0"
       sodipodi:nodetypes="sssssssss" />
    <path
       sodipodi:type="arc"
       style="fill:#cccccc;fill-opacity:1;fill-rule:evenodd;stroke:#070000;stroke-width:7;stroke-miterlimit:4;stroke-opacity:1;stroke-dasharray:none"
       id="path3991"
       sodipodi:cx="-43.840622"
       sodipodi:cy="453.44275"
       sodipodi:rx="42.426407"
       sodipodi:ry="31.819805"
       d="m -1.4142151,453.44275 a 42.426407,31.819805 0 1 1 -0.00245,-0.34175"
       sodipodi:start="0"
       sodipodi:end="6.2724451"
       sodipodi:open="true"
       transform="translate(441.23463,376.18081)" />
    <path
       sodipodi:type="arc"
       style="fill:#ffffff;fill-opacity:1;fill-rule:evenodd;stroke:#000000;stroke-width:4;stroke-miterlimit:4;stroke-opacity:1;stroke-dasharray:none"
       id="path3995"
       sodipodi:cx="-149.19952"
       sodipodi:cy="344.54831"
       sodipodi:rx="55.861435"
       sodipodi:ry="26.162951"
       d="m -93.338089,344.54831 a 55.861435,26.162951 0 1 1 -0.0032,-0.28099"
       sodipodi:start="0"
       sodipodi:end="6.2724451"
       sodipodi:open="true"
       transform="translate(531.7443,117.37973)" />
    <path
       style="fill:none;stroke:#000000;stroke-width:4.33347368;stroke-linecap:butt;stroke-linejoin:miter;stroke-miterlimit:4;stroke-opacity:1;stroke-dasharray:none"
       d="m 364.8998,441.38923 -1.47962,45.32024"
       id="path3993"
       inkscape:connector-type="polyline"
       inkscape:connector-curvature="0" />
    <path
       style="fill:none;stroke:#000000;stroke-width:4.27750635;stroke-linecap:butt;stroke-linejoin:miter;stroke-miterlimit:4;stroke-opacity:1;stroke-dasharray:none;display:inline"
       d="m 415.13237,442.77545 -1.5356,42.54779"
       id="path3993-4"
       inkscape:connector-type="polyline"
       inkscape:connector-curvature="0" />
    <path
       style="fill:none;stroke:#000000;stroke-width:4.40985489;stroke-linecap:butt;stroke-linejoin:miter;stroke-miterlimit:4;stroke-opacity:1;stroke-dasharray:none;display:inline"
       d="m 388.19614,438.59898 -1.40326,49.48651"
       id="path3993-5"
       inkscape:connector-type="polyline"
       inkscape:connector-curvature="0" />
  </g>
  <g
     inkscape:groupmode="layer"
     id="layer6"
     inkscape:label="Helmet"
     sodipodi:insensitive="true">
    <path
       style="fill:#aa4400;fill-opacity:1;fill-rule:evenodd;stroke:#000000;stroke-width:7;stroke-miterlimit:4;stroke-opacity:1;stroke-dasharray:none"
       d="m 585.48441,240.6036 c 0,85.91534 -90.69047,-14.14214 -200.81832,-14.14214 -110.12785,0 -197.98991,100.05748 -197.98991,14.14214 0,-85.91534 93.51891,-175.362485 203.64676,-175.362485 109.29241,0 193.97617,92.933065 195.14997,178.191735"
       id="path3000"
       inkscape:connector-curvature="0"
       sodipodi:nodetypes="csssc" />
    <path
       style="fill:#ececec;fill-opacity:1;fill-rule:evenodd;stroke:#000000;stroke-width:7;stroke-miterlimit:4;stroke-opacity:1;stroke-dasharray:none"
       d="m 254.44662,96.04724 c 0,61.50775 -13.29646,114.5513 -29.69848,114.5513 -16.40202,0 -29.69849,-51.28636 -29.69849,-114.5513 0,-63.26493 122.0072,-117.39232 110.00967,-106.20815 -44.33619,41.33048 -54.77497,64.26278 -50.61441,107.97787"
       id="path3003"
       inkscape:connector-curvature="0"
       sodipodi:nodetypes="csssc" />
    <path
       style="fill:#ececec;fill-opacity:1;fill-rule:evenodd;stroke:#000000;stroke-width:7;stroke-miterlimit:4;stroke-opacity:1;stroke-dasharray:none"
       d="m 515.52296,94.4275 c 0,61.50775 13.29646,114.5513 29.69848,114.5513 16.40202,0 29.69849,-51.28636 29.69849,-114.5513 0,-63.264939 -122.0072,-117.392329 -110.00967,-106.208159 44.33619,41.33048 54.77497,64.26278 50.61441,107.977879"
       id="path3003-1"
       inkscape:connector-curvature="0"
       sodipodi:nodetypes="csssc" />
  </g>
  <g
     inkscape:groupmode="layer"
     id="layer7"
     inkscape:label="Stache"
     sodipodi:insensitive="true"
     style="display:inline">
    <path
       style="fill:#28170b;fill-opacity:1;fill-rule:evenodd;stroke:#000000;stroke-width:7;stroke-miterlimit:4;stroke-opacity:1;stroke-dasharray:none"
       d="m 384.65873,369.99264 c -73.02804,0 -132.21875,41.79454 -132.21875,93.34375 0,51.54921 52.82675,178.90367 125.85479,178.90367 73.02805,0 138.61396,-127.35446 138.61396,-178.90367 l -0.0312,-1 c -0.77837,-51.1552 -59.74469,-92.34375 -132.21875,-92.34375 z m 1.78125,70.71875 c 27.3231,0 49.5503,10.60491 49.84375,23.78125 l 0,0.25 c 0,13.27783 -22.31179,24.0625 -49.84375,24.0625 -27.53196,0 -49.84375,-10.78467 -49.84375,-24.0625 0,-13.27783 22.31179,-24.03125 49.84375,-24.03125 z"
       id="path3796"
       inkscape:connector-curvature="0"
       sodipodi:nodetypes="sssccssscssss" />
  </g>
  <g
     inkscape:groupmode="layer"
     id="layer11"
     inkscape:label="Eyes"
     sodipodi:insensitive="true"
     style="display:inline">
    <path
       style="fill:#f2f2f2;fill-opacity:1;fill-rule:evenodd;stroke:#000000;stroke-width:7;stroke-miterlimit:4;stroke-opacity:1"
       d="m 302.76894,308.39919 c 0,11.87412 -14.10303,21.5 -31.5,21.5 -17.39697,0 -31.5,-9.62588 -31.5,-21.5 0,-11.87412 14.10303,-21.5 31.5,-21.5 16.96915,0 30.88866,10.94245 31.48082,22.51751"
       id="path3806"
       inkscape:connector-curvature="0"
       sodipodi:nodetypes="csssc" />
    <path
       style="fill:#f2f2f2;fill-opacity:1;fill-rule:evenodd;stroke:#000000;stroke-width:7;stroke-miterlimit:4;stroke-opacity:1"
       d="m 461.35342,312.02139 c 0,11.87412 14.10303,21.5 31.5,21.5 17.39697,0 31.5,-9.62588 31.5,-21.5 0,-11.87412 -14.10303,-21.5 -31.5,-21.5 -16.96915,0 -30.88866,10.94245 -31.48082,22.51751"
       id="path3806-7"
       inkscape:connector-curvature="0"
       sodipodi:nodetypes="csssc" />
    <path
       style="fill:#000000;fill-opacity:1;fill-rule:evenodd;stroke:#000000;stroke-width:7;stroke-miterlimit:4;stroke-opacity:1"
       d="m 290.12399,310.22955 c 0,2.73367 -2.69095,4.94975 -6.0104,4.94975 -3.31946,0 -6.01041,-2.21608 -6.01041,-4.94975 0,-2.73367 2.69095,-4.94974 6.01041,-4.94974 3.23782,0 5.89376,3.3622 6.00674,6.02702"
       id="path3834"
       inkscape:connector-curvature="0"
       sodipodi:nodetypes="csssc" />
    <path
       style="fill:#000000;fill-opacity:1;fill-rule:evenodd;stroke:#000000;stroke-width:7;stroke-miterlimit:4;stroke-opacity:1"
       d="m 484.0104,313.36218 c 0,2.73367 -2.69095,4.94975 -6.0104,4.94975 -3.31946,0 -6.01041,-2.21608 -6.01041,-4.94975 0,-2.73367 2.69095,-4.94974 6.01041,-4.94974 3.23782,0 5.89376,3.3622 6.00674,6.02702"
       id="path3834-0"
       inkscape:connector-curvature="0"
       sodipodi:nodetypes="csssc" />
    <path
       style="fill:none;stroke:#ff0000;stroke-width:0.95225245px;stroke-linecap:butt;stroke-linejoin:miter;stroke-opacity:1"
       d="m 251.52262,319.96031 c 1.57293,-0.26014 0.56862,-2.37282 1.28246,-3.25046 0.20191,-0.24825 0.63955,-0.11682 0.84145,-0.36504 0.14278,-0.17554 0.11373,-0.47458 0.2565,-0.6501 0.10296,-0.12657 1.39238,-0.60405 1.6829,-0.73008 0.48874,-0.21202 1.68501,-0.85311 2.10362,-0.9126 0.33393,-0.0475 0.66948,0.12138 1.00569,0.10254 0.15035,-0.008 0.27368,-0.2183 0.42072,-0.18253 0.19982,0.0487 2.61354,1.1832 2.92479,1.42528 0.27579,0.21452 0.44089,0.60239 0.74919,0.75264 0.3083,0.15024 0.67685,0.0224 1.00568,0.10253 0.20797,0.0507 0.37294,0.26344 0.58496,0.28506 0.29983,0.0305 0.56569,-0.49943 0.84145,-0.36505 0.97492,0.4751 -1.37843,1.13682 1.00568,0.10255 1.91526,-0.83089 0.10149,0.20997 1.09795,-1.01514 0.10096,-0.12409 0.31975,-0.0584 0.42072,-0.18252 0.1568,-0.19279 0.87512,-2.21804 1.02597,-2.60038 0.0855,-0.2167 0.17099,-0.4334 0.2565,-0.65009 0.0855,-0.21671 0.0615,-0.74512 0.25649,-0.6501 0.19499,0.095 -0.342,0.86679 -0.25649,0.6501 0.17099,-0.4334 0.34199,-0.8668 0.51298,-1.3002 0.0856,-0.2167 0.11373,-0.47457 0.2565,-0.65009 0.10096,-0.12408 0.28048,-0.12167 0.42073,-0.18252 0.22573,-0.27754 0.48418,-0.52611 0.67722,-0.83261 0.12208,-0.19387 0.11371,-0.47458 0.25649,-0.6501 0.10096,-0.12409 0.28047,-0.12168 0.42072,-0.18252 0.28048,-0.12168 0.54073,-0.34817 0.84146,-0.36504 0.21262,-0.012 0.37293,0.26344 0.58495,0.28506 0.29983,0.0305 0.54162,-0.39562 0.84145,-0.36504 0.21201,0.0216 0.38997,0.19004 0.58495,0.28505"
       id="path3859"
       inkscape:connector-curvature="0" />
    <path
       style="fill:none;stroke:#ff0000;stroke-width:0.95225245px;stroke-linecap:butt;stroke-linejoin:miter;stroke-opacity:1"
       d="m 510.95184,325.0512 c -1.57293,-0.26014 -0.56862,-2.37282 -1.28246,-3.25046 -0.20191,-0.24825 -0.63955,-0.11682 -0.84145,-0.36504 -0.14278,-0.17554 -0.11373,-0.47458 -0.2565,-0.6501 -0.10296,-0.12657 -1.39238,-0.60405 -1.6829,-0.73008 -0.48874,-0.21202 -1.68501,-0.85311 -2.10362,-0.9126 -0.33393,-0.0475 -0.66948,0.12138 -1.00569,0.10254 -0.15035,-0.008 -0.27368,-0.2183 -0.42072,-0.18253 -0.19982,0.0487 -2.61354,1.1832 -2.92479,1.42528 -0.27579,0.21452 -0.44089,0.60239 -0.74919,0.75264 -0.3083,0.15024 -0.67685,0.0224 -1.00568,0.10253 -0.20797,0.0507 -0.37294,0.26344 -0.58496,0.28506 -0.29983,0.0305 -0.56569,-0.49943 -0.84145,-0.36505 -0.97492,0.4751 1.37843,1.13682 -1.00568,0.10255 -1.91526,-0.83089 -0.10149,0.20997 -1.09795,-1.01514 -0.10096,-0.12409 -0.31975,-0.0584 -0.42072,-0.18252 -0.1568,-0.19279 -0.87512,-2.21804 -1.02597,-2.60038 -0.0855,-0.2167 -0.17099,-0.4334 -0.2565,-0.65009 -0.0855,-0.21671 -0.0615,-0.74512 -0.25649,-0.6501 -0.19499,0.095 0.342,0.86679 0.25649,0.6501 -0.17099,-0.4334 -0.34199,-0.8668 -0.51298,-1.3002 -0.0856,-0.2167 -0.11373,-0.47457 -0.2565,-0.65009 -0.10096,-0.12408 -0.28048,-0.12167 -0.42073,-0.18252 -0.22573,-0.27754 -0.48418,-0.52611 -0.67722,-0.83261 -0.12208,-0.19387 -0.11371,-0.47458 -0.25649,-0.6501 -0.10096,-0.12409 -0.28047,-0.12168 -0.42072,-0.18252 -0.28048,-0.12168 -0.54073,-0.34817 -0.84146,-0.36504 -0.21262,-0.012 -0.37293,0.26344 -0.58495,0.28506 -0.29983,0.0305 -0.54162,-0.39562 -0.84145,-0.36504 -0.21201,0.0216 -0.38997,0.19004 -0.58495,0.28505"
       id="path3859-9"
       inkscape:connector-curvature="0" />
    <path
       style="fill:none;stroke:#ff0000;stroke-width:1.04853868px;stroke-linecap:butt;stroke-linejoin:miter;stroke-opacity:1"
       d="m 517.43707,305.46692 c -1.80293,0.61517 -2.15238,-1.67606 -3.47078,-2.02968 -0.37293,-0.10003 -0.74034,0.24092 -1.11323,0.14091 -0.2637,-0.0707 -0.4305,-0.33522 -0.69417,-0.40594 -0.19015,-0.051 -1.84211,0.23316 -2.22646,0.28182 -0.64659,0.0818 -2.30966,0.18044 -2.78305,0.35227 -0.37767,0.13703 -0.61453,0.4552 -0.9757,0.61732 -0.16122,0.0728 -0.42764,-0.0371 -0.55661,0.0704 -0.1752,0.14626 -1.93189,2.36797 -2.09533,2.73426 -0.14482,0.32457 -0.0607,0.73503 -0.28152,1.02325 -0.22086,0.28822 -0.68735,0.37663 -0.97568,0.6173 -0.18234,0.15223 -0.21337,0.41671 -0.41907,0.54685 -0.29092,0.18399 -0.91567,-0.11688 -1.11323,0.14091 -0.69843,0.91142 2.17847,0.21806 -0.97567,0.61732 -2.53386,0.32071 0.0331,0.2286 -1.80739,-0.26504 -0.18644,-0.0499 -0.37014,0.12046 -0.55661,0.0705 -0.28961,-0.0777 -2.36838,-1.38501 -2.77663,-1.62375 -0.23139,-0.13532 -0.46277,-0.27064 -0.69417,-0.40594 -0.2314,-0.13532 -0.55447,-0.58823 -0.69415,-0.40595 -0.13972,0.18227 0.92555,0.54125 0.69415,0.40595 -0.46277,-0.27063 -0.92555,-0.54126 -1.38832,-0.81188 -0.23149,-0.13526 -0.43048,-0.33522 -0.69416,-0.40594 -0.18643,-0.0499 -0.37107,0.047 -0.55662,0.0704 -0.41691,-0.11183 -0.8487,-0.18223 -1.25077,-0.33548 -0.2543,-0.0969 -0.43047,-0.33523 -0.69416,-0.40593 -0.18644,-0.05 -0.37107,0.047 -0.55661,0.0704 -0.37107,0.047 -0.79017,-0.004 -1.11323,0.14092 -0.22846,0.10245 -0.21337,0.4167 -0.41906,0.54685 -0.29093,0.18398 -0.82234,-0.0431 -1.11322,0.1409 -0.20571,0.13013 -0.27938,0.36458 -0.41907,0.54685"
       id="path3859-9-4"
       inkscape:connector-curvature="0" />
    <path
       style="fill:none;stroke:#ff0000;stroke-width:1.04853868px;stroke-linecap:butt;stroke-linejoin:miter;stroke-opacity:1"
       d="m 245.63974,301.56533 c 1.80293,0.61517 2.15238,-1.67606 3.47078,-2.02968 0.37293,-0.10003 0.74034,0.24092 1.11323,0.14091 0.2637,-0.0707 0.4305,-0.33522 0.69417,-0.40594 0.19015,-0.051 1.84211,0.23316 2.22646,0.28182 0.64659,0.0818 2.30966,0.18044 2.78305,0.35227 0.37767,0.13703 0.61453,0.4552 0.9757,0.61732 0.16122,0.0728 0.42764,-0.0371 0.55661,0.0704 0.1752,0.14626 1.93189,2.36797 2.09533,2.73426 0.14482,0.32457 0.0607,0.73503 0.28152,1.02325 0.22086,0.28822 0.68735,0.37663 0.97568,0.6173 0.18234,0.15223 0.21337,0.41671 0.41907,0.54685 0.29092,0.18399 0.91567,-0.11688 1.11323,0.14091 0.69843,0.91142 -2.17847,0.21806 0.97567,0.61732 2.53386,0.32071 -0.0331,0.2286 1.80739,-0.26504 0.18644,-0.0499 0.37014,0.12046 0.55661,0.0705 0.28961,-0.0777 2.36838,-1.38501 2.77663,-1.62375 0.23139,-0.13532 0.46277,-0.27064 0.69417,-0.40594 0.2314,-0.13532 0.55447,-0.58823 0.69415,-0.40595 0.13972,0.18227 -0.92555,0.54125 -0.69415,0.40595 0.46277,-0.27063 0.92555,-0.54126 1.38832,-0.81188 0.23149,-0.13526 0.43048,-0.33522 0.69416,-0.40594 0.18643,-0.0499 0.37107,0.047 0.55662,0.0704 0.41691,-0.11183 0.8487,-0.18223 1.25077,-0.33548 0.2543,-0.0969 0.43047,-0.33523 0.69416,-0.40593 0.18644,-0.05 0.37107,0.047 0.55661,0.0704 0.37107,0.047 0.79017,-0.004 1.11323,0.14092 0.22846,0.10245 0.21337,0.4167 0.41906,0.54685 0.29093,0.18398 0.82234,-0.0431 1.11322,0.1409 0.20571,0.13013 0.27938,0.36458 0.41907,0.54685"
       id="path3859-9-4-8"
       inkscape:connector-curvature="0" />
    <path
       style="fill:none;stroke:#ff0000;stroke-width:0.5106464px;stroke-linecap:butt;stroke-linejoin:miter;stroke-opacity:1"
       d="m 271.01854,289.98781 c 0.36084,0.87081 1.27957,0.23144 1.82636,0.59884 0.15466,0.10393 0.15228,0.35366 0.30693,0.45758 0.10935,0.0735 0.25592,0.0463 0.36528,0.11978 0.0788,0.053 0.5079,0.75716 0.61387,0.91515 0.17828,0.26576 0.67621,0.91184 0.76733,1.14394 0.0727,0.18515 0.0366,0.37913 0.0951,0.56661 0.026,0.0838 0.15004,0.14519 0.15349,0.22877 0.005,0.11361 -0.21507,1.506 -0.29171,1.68905 -0.0679,0.1622 -0.23938,0.2688 -0.27014,0.44683 -0.0307,0.17804 0.0875,0.37963 0.0951,0.5666 0.005,0.11824 -0.0784,0.21836 -0.0583,0.33781 0.0284,0.16892 0.33443,0.29833 0.30693,0.45758 -0.0972,0.56301 -0.77452,-0.72988 0.0951,0.5666 0.69863,1.0415 -0.0911,0.0644 0.67221,0.57734 0.0773,0.052 0.0761,0.17682 0.15345,0.2288 0.12012,0.0807 1.24626,0.40864 1.46109,0.47907 0.12176,0.0399 0.24352,0.0799 0.36527,0.11978 0.12177,0.0399 0.38473,0.007 0.36528,0.11976 -0.0194,0.11261 -0.48703,-0.15969 -0.36528,-0.11976 0.24352,0.0798 0.48704,0.15969 0.73055,0.23954 0.12177,0.04 0.25592,0.0463 0.36528,0.11976 0.0773,0.052 0.10229,0.15253 0.15348,0.22877 0.17291,0.11618 0.336,0.25174 0.51874,0.34856 0.11557,0.0612 0.25592,0.0463 0.36527,0.11977 0.0773,0.052 0.1023,0.15254 0.15348,0.22877 0.1023,0.15254 0.25449,0.28992 0.30693,0.45759 0.0371,0.11855 -0.0784,0.21835 -0.0583,0.3378 0.0284,0.16892 0.27856,0.28867 0.30694,0.45758 0.02,0.11945 -0.0389,0.2252 -0.0583,0.33781"
       id="path3859-9-4-8-8"
       inkscape:connector-curvature="0" />
    <path
       style="fill:none;stroke:#ff0000;stroke-width:0.5106464px;stroke-linecap:butt;stroke-linejoin:miter;stroke-opacity:1"
       d="m 491.75191,294.17415 c -0.36084,0.87081 -1.27957,0.23144 -1.82636,0.59884 -0.15466,0.10393 -0.15228,0.35366 -0.30693,0.45758 -0.10935,0.0735 -0.25592,0.0463 -0.36528,0.11978 -0.0788,0.053 -0.5079,0.75716 -0.61387,0.91515 -0.17828,0.26576 -0.67621,0.91184 -0.76733,1.14394 -0.0727,0.18515 -0.0366,0.37913 -0.0951,0.56661 -0.026,0.0838 -0.15004,0.14519 -0.15349,0.22877 -0.005,0.11361 0.21507,1.506 0.29171,1.68905 0.0679,0.1622 0.23938,0.2688 0.27014,0.44683 0.0307,0.17804 -0.0875,0.37963 -0.0951,0.5666 -0.005,0.11824 0.0784,0.21836 0.0583,0.33781 -0.0284,0.16892 -0.33443,0.29833 -0.30693,0.45758 0.0972,0.56301 0.77452,-0.72988 -0.0951,0.5666 -0.69863,1.0415 0.0911,0.0644 -0.67221,0.57734 -0.0773,0.052 -0.0761,0.17682 -0.15345,0.2288 -0.12012,0.0807 -1.24626,0.40864 -1.46109,0.47907 -0.12176,0.0399 -0.24352,0.0799 -0.36527,0.11978 -0.12177,0.0399 -0.38473,0.007 -0.36528,0.11976 0.0194,0.11261 0.48703,-0.15969 0.36528,-0.11976 -0.24352,0.0798 -0.48704,0.15969 -0.73055,0.23954 -0.12177,0.04 -0.25592,0.0463 -0.36528,0.11976 -0.0773,0.052 -0.10229,0.15253 -0.15348,0.22877 -0.17291,0.11618 -0.336,0.25174 -0.51874,0.34856 -0.11557,0.0612 -0.25592,0.0463 -0.36527,0.11977 -0.0773,0.052 -0.1023,0.15254 -0.15348,0.22877 -0.1023,0.15254 -0.25449,0.28992 -0.30693,0.45759 -0.0371,0.11855 0.0784,0.21835 0.0583,0.3378 -0.0284,0.16892 -0.27856,0.28867 -0.30694,0.45758 -0.02,0.11945 0.0389,0.2252 0.0583,0.33781"
       id="path3859-9-4-8-8-2"
       inkscape:connector-curvature="0" />
  </g>
  <g
     inkscape:groupmode="layer"
     id="layer12"
     inkscape:label="Hands"
     sodipodi:insensitive="true">
    <path
       style="fill:#502d16;fill-opacity:1;fill-rule:evenodd;stroke:#070000;stroke-width:11.72784233;stroke-miterlimit:4;stroke-opacity:1"
       d="m 651.99997,465.7261 c 8.66239,0 15.63608,42.82128 15.63608,96.01183 l 0,177.2485 c 0,39.88811 2.92288,79.72609 -2.02018,95.40647 -1.65032,5.23516 -17.94952,1.10536 -20.1159,1.10536 -8.66239,0 -9.13608,-43.32127 -9.13608,-96.51183 l 0,-177.2485 c 0,-53.19055 6.97369,-96.01183 15.63608,-96.01183 z"
       id="rect3979"
       inkscape:connector-curvature="0"
       sodipodi:nodetypes="ssssssss" />
    <path
       sodipodi:type="arc"
       style="fill:#ffccaa;fill-opacity:1;stroke:#000000;stroke-width:7;stroke-linecap:round;stroke-linejoin:round;stroke-miterlimit:4;stroke-opacity:1;stroke-dasharray:none;display:inline"
       id="path7127"
       sodipodi:cx="637.91138"
       sodipodi:cy="723.01447"
       sodipodi:rx="46.364483"
       sodipodi:ry="51.160809"
       d="m 684.27586,723.01447 a 46.364483,51.160809 0 1 1 -0.003,-0.54947"
       sodipodi:start="0"
       sodipodi:end="6.2724451"
       sodipodi:open="true"
       transform="translate(18.08862,-16.652281)" />
    <path
       style="fill:#666666;fill-opacity:1;fill-rule:evenodd;stroke:#070000;stroke-width:7;stroke-miterlimit:4;stroke-opacity:1"
       d="m 651.5,524.86218 c 29.60694,0 66.82428,-50.15513 83.42204,-37.17941 11.6645,9.11903 16.07796,34.5252 16.07796,46.92941 0,15.20382 -0.38635,43.40827 -17.17716,53.23953 -16.40081,9.60291 -56.91203,-35.48953 -81.82284,-35.48953 -27.86458,0 -64.22676,46.60842 -80.89303,34.9214 C 557.61979,577.82586 553.5,550.5551 553.5,537.11218 c 0,-11.38117 4.82011,-39.42215 14.79004,-48.12719 16.35789,-14.28255 51.88696,35.87719 83.20996,35.87719 z"
       id="rect3984"
       inkscape:connector-curvature="0"
       sodipodi:nodetypes="sssssssss" />
  </g>
  <g
     inkscape:groupmode="layer"
     id="layer13"
     inkscape:label="Clothes" />
</svg>
